<svg xmlns="http://www.w3.org/2000/svg" version="1.1" xmlns:xlink="http://www.w3.org/1999/xlink" xmlns:svgjs="http://svgjs.dev/svgjs" width="2000" height="1252" viewBox="0 0 2000 1252"><g transform="matrix(1,0,0,1,-1.2121212121212466,-2.01935483870966)"><svg viewBox="0 0 396 248" data-background-color="#ffffff" preserveAspectRatio="xMidYMid meet" height="1252" width="2000" xmlns="http://www.w3.org/2000/svg" xmlns:xlink="http://www.w3.org/1999/xlink"><g id="tight-bounds" transform="matrix(1,0,0,1,0.2400000000000091,0.4000000000000057)"><svg viewBox="0 0 395.52 247.2" height="247.2" width="395.52"><g><svg></svg></g><g><svg viewBox="0 0 395.52 247.2" height="247.2" width="395.52"><g transform="matrix(1,0,0,1,141.31901201044386,47.215199999999996)"><svg viewBox="0 0 112.88197597911227 152.7696" height="152.7696" width="112.88197597911227"><g><svg viewBox="0 0 112.88197597911227 152.7696" height="152.7696" width="112.88197597911227"><g><svg viewBox="0 0 112.88197597911227 152.7696" height="152.7696" width="112.88197597911227"><g><svg viewBox="0 0 112.88197597911227 152.7696" height="152.7696" width="112.88197597911227"><g id="textblocktransform"><svg viewBox="0 0 112.88197597911227 152.7696" height="152.7696" width="112.88197597911227" id="textblock"><g><svg viewBox="0 0 112.88197597911227 152.7696" height="152.7696" width="112.88197597911227"><g transform="matrix(1,0,0,1,0,0)"><svg width="112.88197597911227" viewBox="3 -36.79 27.64 37.4" height="152.7696" data-palette-color="#0866ff"><path d="M30.59-10.79L30.64-0.9Q26.37 0.61 21.9 0.61L21.9 0.61Q18.87 0.61 16.13-0.06 13.38-0.73 10.97-2.2 8.57-3.66 6.8-5.76 5.03-7.86 4.02-10.9 3-13.94 3-17.6L3-17.6Q3-22.19 4.49-25.89 5.98-29.59 8.56-31.95 11.13-34.3 14.55-35.55 17.97-36.79 21.9-36.79L21.9-36.79Q26.05-36.79 30.3-35.45L30.3-35.45 30.25-26.15 29.25-26.15 26.2-33.11Q24.15-34.01 20.8-34.01L20.8-34.01Q18.85-34.01 17.11-33.5 15.38-32.98 13.78-31.79 12.18-30.59 11.02-28.77 9.86-26.95 9.18-24.17 8.5-21.39 8.5-17.9L8.5-17.9Q8.5-14.18 9.58-11.15 10.67-8.11 12.55-6.14 14.43-4.17 16.91-3.11 19.38-2.05 22.19-2.05L22.19-2.05Q24.68-2.05 26.9-2.76L26.9-2.76 29.59-10.79 30.59-10.79Z" opacity="1" transform="matrix(1,0,0,1,0,0)" fill="#ffffff" className="wordmark-text-0" data-fill-palette-color="primary" id="text-0"></path></svg></g></svg></g></svg></g></svg></g></svg></g></svg></g></svg></g><g><path d="M0 123.6c0-68.262 55.338-123.6 123.6-123.6 30.402 0 58.24 10.976 79.768 29.183l-11.147 0c-19.26-14.022-42.974-22.294-68.621-22.295-64.458 0-116.712 52.254-116.712 116.712 0 64.458 52.254 116.712 116.712 116.712 25.647 0 49.361-8.272 68.621-22.295l11.147 0c-21.528 18.206-49.366 29.183-79.768 29.183-68.262 0-123.6-55.338-123.6-123.6z" fill="#ffffff" stroke="transparent" data-fill-palette-color="tertiary"></path></g></svg></g><defs></defs></svg><rect width="395.52" height="247.2" fill="none" stroke="none" visibility="hidden"></rect></g></svg></g></svg>