<svg width="18" height="19" viewBox="0 0 18 19" fill="none" xmlns="http://www.w3.org/2000/svg">
<path d="M8.99998 0.886368C13.8285 0.886368 17.5714 4.42351 17.5714 9.20065C17.5714 13.9778 13.8285 17.5149 8.99998 17.5149C8.16181 17.5169 7.32719 17.4061 6.51855 17.1857C6.36663 17.1437 6.20486 17.1555 6.06069 17.2192L4.35712 17.9699C4.25431 18.0152 4.14196 18.0346 4.02992 18.0264C3.91789 18.0181 3.80959 17.9825 3.71453 17.9226C3.61947 17.8627 3.54056 17.7805 3.48472 17.683C3.42888 17.5855 3.39782 17.4758 3.39426 17.3635L3.34783 15.8392C3.34468 15.7464 3.32267 15.6553 3.28312 15.5713C3.24358 15.4873 3.18734 15.4122 3.11783 15.3507C2.25784 14.5759 1.57308 13.6265 1.10932 12.566C0.645558 11.5054 0.413465 10.3581 0.428547 9.20065C0.428547 4.42351 4.1714 0.886368 8.99998 0.886368ZM3.85283 11.6321C3.8019 11.7128 3.78092 11.8088 3.79356 11.9034C3.80621 11.9979 3.85167 12.0851 3.92202 12.1496C3.99236 12.214 4.08312 12.2518 4.17844 12.2561C4.27376 12.2605 4.36759 12.2313 4.44355 12.1735L7.14783 10.1207C7.2372 10.0534 7.346 10.0171 7.45783 10.0171C7.56966 10.0171 7.67846 10.0534 7.76783 10.1207L9.76783 11.6207C9.90991 11.7269 10.0724 11.8025 10.2452 11.8429C10.4179 11.8833 10.5971 11.8874 10.7716 11.8552C10.946 11.8229 11.1119 11.7549 11.2587 11.6554C11.4056 11.5559 11.5303 11.4271 11.625 11.2771L14.1428 7.2828C14.1938 7.20211 14.2147 7.10609 14.2021 7.01151C14.1895 6.91693 14.144 6.8298 14.0737 6.76532C14.0033 6.70085 13.9125 6.66313 13.8172 6.65875C13.7219 6.65437 13.6281 6.68361 13.5521 6.74137L10.8478 8.79423C10.7585 8.86145 10.6497 8.8978 10.5378 8.8978C10.426 8.8978 10.3172 8.86145 10.2278 8.79423L8.22783 7.29422C8.08576 7.18801 7.92323 7.11234 7.75049 7.07198C7.57775 7.03162 7.39853 7.02745 7.2241 7.05972C7.04966 7.09199 6.8838 7.16001 6.73693 7.25949C6.59006 7.35898 6.46536 7.48778 6.37069 7.6378L3.85283 11.6321Z" fill="white"/>
</svg>
