<svg width="16" height="17" viewBox="0 0 16 17" fill="none" xmlns="http://www.w3.org/2000/svg">
<path d="M3.60502 15.2049C4.57645 15.2049 6.1736 15.1157 8.3336 14.7178C7.96003 15.7335 6.98645 16.4614 5.84288 16.4614C4.89217 16.4614 4.05931 15.9578 3.58931 15.2049H3.60502ZM15.8022 9.66351C15.9786 10.5721 15.3415 11.3757 13.9072 12.0535C13.1215 12.4242 11.3743 13.1299 8.4886 13.6914C6.26288 14.1235 4.63217 14.2228 3.60574 14.2228C3.30074 14.2228 3.0486 14.2142 2.85002 14.2028C1.26717 14.1121 0.37431 13.6049 0.197881 12.6964C-0.0699761 11.3199 0.353595 10.7885 1.05574 9.90851L1.24074 9.67637C1.71431 9.07566 1.89931 8.48566 1.59645 6.92923C0.918595 3.44351 2.4886 1.06137 5.90288 0.394229C9.3186 -0.265057 11.6672 1.35352 12.345 4.83994C12.6472 6.39637 13.04 6.87351 13.7043 7.2528V7.25351L13.9629 7.39994C14.9429 7.9528 15.5343 8.28637 15.8022 9.66351Z" fill="white"/>
</svg>
